<?xml version="1.0" encoding="utf-8"?>
<!-- Generator: Adobe Illustrator 22.0.0, SVG Export Plug-In . SVG Version: 6.00 Build 0)  -->
<svg version="1.1" id="Layer_1" xmlns="http://www.w3.org/2000/svg" xmlns:xlink="http://www.w3.org/1999/xlink" x="0px" y="0px"
	 viewBox="0 0 500 500" style="enable-background:new 0 0 500 500;" xml:space="preserve">
<style type="text/css">
	.st0{fill:#AAB1BA;}
	.st1{fill:#FDDF7F;}
	.st2{fill:#ECF4F7;}
	.st3{fill:#83E1E5;}
	.st4{fill:#1C1D21;}
	.st5{fill:none;}
</style>
<g>
	<path class="st1" d="M223.475,176.239l24.062-23.118c5.176-4.973,12.075-7.75,19.252-7.75h23.477
		c-8.259-47.775-49.902-84.115-100.037-84.115c-56.074,0-101.531,45.457-101.531,101.53c0,56.074,45.457,101.531,101.531,101.531
		c17.508,0,33.981-4.432,48.359-12.235l-15.112-14.52V176.239z"/>
</g>
<g>
	<circle class="st0" cx="174.258" cy="137.786" r="19.209"/>
</g>
<g>
	<path class="st0" d="M266.76,145.372c1.002-2.328,1.562-4.89,1.562-7.585c0-10.609-8.6-19.209-19.209-19.209
		c-10.609,0-19.209,8.6-19.209,19.209c0,8.904,6.067,16.372,14.287,18.549l3.345-3.214
		C252.705,148.155,259.593,145.379,266.76,145.372z"/>
</g>
<g>
	<path class="st3" d="M323.991,312.955h-39.683c-8.829,0-15.986-7.157-15.986-15.986V268.43h-1.533
		c-7.177,0-14.076-2.777-19.252-7.75l-8.949-8.599c-14.378,7.803-30.85,12.235-48.359,12.235c-19.006,0-36.789-5.228-52-14.316
		c-0.001,0-0.001-0.001-0.002-0.001h-30.491c-27.373,0-49.563,22.19-49.563,49.563V495h230.597v-53.458
		c4.399,2.945,9.688,4.664,15.379,4.664c15.289,0,27.683-12.394,27.683-27.683V310.891
		C329.515,312.2,326.843,312.955,323.991,312.955z"/>
</g>
<g>
	<rect x="58.173" y="448.481" class="st1" width="57.634" height="46.519"/>
</g>
<g>
	<path class="st2" d="M432.597,145.371c0,0-99.027,0-99.027,0h-66.781c-7.177,0-14.076,2.777-19.252,7.75l-24.062,23.118v18.976
		H204.61c-6.146,0-11.128,4.982-11.128,11.128v2.54c0,6.146,4.982,11.128,11.128,11.128h18.865v17.55l24.062,23.118
		c5.176,4.973,12.075,7.75,19.252,7.75h1.533v28.538c0,8.829,7.157,15.986,15.986,15.986h39.683c8.829,0,15.986-7.157,15.986-15.986
		V268.43h92.619c5.097,0,9.229-4.132,9.229-9.229v-104.6C441.827,149.503,437.694,145.371,432.597,145.371z M318.8,290.662
		c0,1.803-1.462,3.266-3.266,3.266h-22.77c-1.803,0-3.266-1.462-3.266-3.266V268.43H318.8V290.662z"/>
</g>
<g>
	<path class="st1" d="M284.308,312.955c-2.852,0-5.523-0.755-7.842-2.064v46.994h55.367v-46.994
		c-2.318,1.309-4.99,2.064-7.842,2.064H284.308z"/>
</g>
<g>
	<path class="st0" d="M432.597,145.371c5.097,0,9.229,4.132,9.229,9.229v104.6c0,5.097-4.132,9.229-9.229,9.229h-99.026
		c-5.097,0-9.229-4.132-9.229-9.229v-104.6c0-5.097,4.132-9.229,9.229-9.229H432.597z"/>
</g>
<g>
	<path class="st1" d="M367.356,176.239c10.226,0,18.516,8.29,18.516,18.516v24.291c0,10.226-8.29,18.516-18.516,18.516h-38.414
		c-2.54,0-4.599-2.059-4.599-4.599v-52.124c0-2.54,2.059-4.599,4.599-4.599H367.356z"/>
</g>
<path class="st4" d="M251.787,16.534c0-2.761,2.239-5,5-5h6.535V5c0-2.761,2.239-5,5-5s5,2.239,5,5v6.534h6.534c2.761,0,5,2.239,5,5
	s-2.239,5-5,5h-6.534v6.535c0,2.761-2.239,5-5,5s-5-2.239-5-5v-6.535h-6.535C254.026,21.534,251.787,19.296,251.787,16.534z
	 M410.026,311.631h-6.534v-6.535c0-2.761-2.239-5-5-5s-5,2.239-5,5v6.535h-6.535c-2.761,0-5,2.239-5,5s2.239,5,5,5h6.535v6.534
	c0,2.761,2.239,5,5,5s5-2.239,5-5v-6.534h6.534c2.761,0,5-2.239,5-5S412.788,311.631,410.026,311.631z M351.016,490h-6.743
	c-2.761,0-5,2.239-5,5s2.239,5,5,5h6.743c2.761,0,5-2.239,5-5S353.777,490,351.016,490z M446.827,154.601v104.6
	c0,7.846-6.383,14.229-14.229,14.229h-87.619v23.538c0,11.572-9.415,20.986-20.987,20.986h-39.683
	c-11.572,0-20.986-9.415-20.986-20.986v-23.725c-7.216-0.758-13.952-3.868-19.249-8.957l-24.063-23.119
	c-1.991-1.913-2.054-5.078-0.141-7.07c1.914-1.991,5.08-2.054,7.07-0.141l24.062,23.118c4.266,4.098,9.873,6.355,15.788,6.355h1.533
	h21.177H318.8h1.184c0-0.001,0-0.002-0.001-0.002c0-0.001-0.001-0.003-0.001-0.004c-0.124-0.399-0.226-0.808-0.315-1.221
	c-0.026-0.122-0.048-0.246-0.071-0.369c-0.058-0.311-0.106-0.625-0.144-0.942c-0.015-0.127-0.032-0.253-0.044-0.381
	c-0.04-0.432-0.066-0.868-0.066-1.31v-104.6c0-0.442,0.027-0.877,0.066-1.308c0.012-0.13,0.029-0.257,0.044-0.386
	c0.037-0.315,0.085-0.626,0.143-0.934c0.024-0.126,0.046-0.252,0.073-0.377c0.089-0.412,0.19-0.82,0.314-1.218
	c0-0.001,0.001-0.003,0.001-0.004c0-0.001,0-0.002,0.001-0.002h-53.195c-5.916,0-11.522,2.257-15.788,6.355l-24.063,23.118
	c-1.99,1.914-5.156,1.85-7.069-0.141c-1.913-1.991-1.85-5.156,0.141-7.07l24.063-23.118c6.137-5.897,14.205-9.145,22.716-9.145
	h66.781h0c0,0,0,0,0,0s0.001,0,0.001,0h99.025C440.443,140.371,446.827,146.754,446.827,154.601z M401.85,150.371h-68.278
	c-0.205,0-0.401,0.032-0.599,0.061c-0.083,0.012-0.171,0.009-0.253,0.026c-1.588,0.326-2.841,1.551-3.236,3.113
	c-0.084,0.332-0.142,0.673-0.142,1.03v104.6c0,2.332,1.897,4.229,4.229,4.229h6.406h61.871l-23.206-23.761
	c-3.353,1.842-7.199,2.893-11.287,2.893h-26.534c-2.761,0-5-2.239-5-5s2.239-5,5-5h26.534c7.453,0,13.516-6.063,13.516-13.516
	v-24.291c0-7.453-6.063-13.516-13.516-13.516h-26.534c-2.761,0-5-2.239-5-5s2.239-5,5-5h26.534c4.089,0,7.937,1.051,11.29,2.894
	L401.85,150.371z M294.499,288.927H313.8V273.43h-19.301V288.927z M334.978,273.43h-1.406H323.8v17.231
	c0,4.558-3.708,8.265-8.266,8.265h-22.77c-4.558,0-8.266-3.708-8.266-8.265V273.43h-11.177v23.538
	c0,6.058,4.928,10.986,10.986,10.986h39.683c6.058,0,10.987-4.928,10.987-10.986V273.43z M436.827,154.601
	c0-2.332-1.897-4.229-4.229-4.229h-16.771l-29.623,30.336c2.931,3.922,4.668,8.786,4.668,14.048v24.291
	c0,5.263-1.738,10.128-4.67,14.051l29.625,30.334h16.771c2.332,0,4.229-1.897,4.229-4.229V154.601z M336.833,327.562v90.961
	c0,18.022-14.662,32.683-32.683,32.683c-3.628,0-7.115-0.603-10.379-1.699V490h33.75c2.761,0,5,2.239,5,5s-2.239,5-5,5h-59.539
	c-2.761,0-5-2.239-5-5s2.239-5,5-5h15.788v-45.952c-7.492-5.994-12.305-15.205-12.305-25.524v-90.961c0-2.761,2.239-5,5-5
	s5,2.239,5,5v25.323h45.367v-25.323c0-2.761,2.239-5,5-5S336.833,324.8,336.833,327.562z M326.833,418.523v-55.638h-45.367v55.638
	c0,12.508,10.176,22.683,22.684,22.683C316.657,441.207,326.833,431.031,326.833,418.523z M204.61,200.216h18.865
	c2.761,0,5-2.239,5-5s-2.239-5-5-5H204.61c-8.893,0-16.128,7.235-16.128,16.128v2.54c0,8.893,7.235,16.128,16.128,16.128h18.865
	c2.761,0,5-2.239,5-5s-2.239-5-5-5H204.61c-3.379,0-6.128-2.749-6.128-6.128v-2.54C198.481,202.965,201.23,200.216,204.61,200.216z
	 M223.09,259.012c0.762,2.654-0.773,5.423-3.427,6.185c-9.528,2.734-19.432,4.12-29.435,4.12c-19.402,0-37.608-5.217-53.293-14.317
	h-29.199c-24.572,0-44.563,19.991-44.563,44.563v143.918h47.635V303.412c0-2.761,2.239-5,5-5s5,2.239,5,5V495c0,2.761-2.239,5-5,5
	s-5-2.239-5-5v-41.519H63.173V495c0,2.761-2.239,5-5,5s-5-2.239-5-5V299.563c0-30.086,24.477-54.563,54.563-54.563h14.817
	c-23.713-19.555-38.856-49.149-38.856-82.214c0-6.835,0.655-13.519,1.891-20H76.42c-2.761,0-5-2.239-5-5s2.239-5,5-5h11.585
	c12.988-44.18,53.895-76.531,102.223-76.531c21.69,0,42.562,6.48,60.36,18.738c17.379,11.97,30.706,28.612,38.539,48.125
	c1.029,2.563-0.215,5.474-2.777,6.503c-2.563,1.028-5.474-0.215-6.503-2.777c-14.776-36.806-49.953-60.588-89.619-60.588
	c-42.757,0-79.105,27.946-91.752,66.531h52.095c2.31-10.957,12.052-19.209,23.687-19.209s21.376,8.251,23.687,19.209h27.482
	c2.31-10.957,12.052-19.209,23.686-19.209c10.266,0,19.447,6.505,22.847,16.188c0.915,2.605-0.456,5.459-3.062,6.374
	c-2.604,0.914-5.458-0.456-6.374-3.061c-1.995-5.683-7.385-9.5-13.412-9.5c-7.834,0-14.208,6.374-14.208,14.209
	c0,2.382,0.6,4.733,1.736,6.802c1.329,2.42,0.444,5.46-1.976,6.789c-0.764,0.419-1.589,0.618-2.402,0.618
	c-1.766,0-3.477-0.937-4.387-2.594c-1.136-2.07-1.949-4.305-2.437-6.615h-27.493c-2.31,10.958-12.052,19.209-23.687,19.209
	s-21.376-8.251-23.687-19.209H95.787c-1.365,6.455-2.089,13.144-2.089,20c0,53.227,43.303,96.531,96.53,96.531
	c9.07,0,18.046-1.256,26.677-3.732C219.559,254.824,222.328,256.357,223.09,259.012z M160.049,137.786
	c0,7.835,6.374,14.209,14.209,14.209s14.209-6.374,14.209-14.209c0-7.835-6.374-14.209-14.209-14.209
	S160.049,129.952,160.049,137.786z"/>
</svg>
